<svg xmlns="http://www.w3.org/2000/svg" width="273" height="273" fill="none" style=""><rect id="backgroundrect" width="100%" height="100%" x="0" y="0" fill="none" stroke="none"/>









<g class="currentLayer" style=""><title>Layer 1</title><path d="M135.371 152.452C174.869 152.452 206.889 120.433 206.889 80.9345C206.889 41.4365 174.869 9.41699 135.371 9.41699C95.873 9.41699 63.8535 41.4365 63.8535 80.9345C63.8535 120.433 95.873 152.452 135.371 152.452Z" stroke="#004f99" stroke-width="5.31334" stroke-miterlimit="10" id="svg_7" class="" stroke-opacity="1"/><path d="M76.1823319237709,256.966 C115.6805319237709,256.966 147.6995319237709,224.946 147.6995319237709,185.448 C147.6995319237709,145.95 115.6805319237709,113.931 76.1823319237709,113.931 C36.684331923770905,113.931 4.664791923770904,145.95 4.664791923770904,185.448 C4.664791923770904,224.946 36.684331923770905,256.966 76.1823319237709,256.966 z" stroke="#004f99" stroke-width="5.31334" stroke-miterlimit="10" id="svg_8" class="" stroke-opacity="1"/><path d="M197.21820470380783,256.966 C236.71620470380782,256.966 268.7352047038078,224.946 268.7352047038078,185.448 C268.7352047038078,145.95 236.71620470380782,113.931 197.21820470380783,113.931 C157.72020470380784,113.931 125.70020470380783,145.95 125.70020470380783,185.448 C125.70020470380783,224.946 157.72020470380784,256.966 197.21820470380783,256.966 z" stroke="#004f99" stroke-width="5.31334" stroke-miterlimit="10" id="svg_9" class="" stroke-opacity="1"/><path d="M113.481,76.09880470380783 C112.153,76.09880470380783 111.09,75.03610470380784 111.09,73.70780470380782 C111.09,72.37950470380783 112.153,71.31680470380783 113.481,71.31680470380783 H168.155 L157.05,60.31820470380783 C156.2,59.41490470380783 156.2,57.92720470380783 157.05,57.02390470380783 C157.475,56.54570470380783 158.113,56.33320470380783 158.75,56.33320470380783 C159.388,56.33320470380783 159.919,56.54570470380783 160.344,56.97080470380783 L175.434,72.06070470380783 C175.859,72.48570470380783 176.125,73.12330470380783 176.125,73.76090470380782 C176.125,74.39850470380783 175.859,75.03610470380784 175.434,75.46120470380784 C175.009,75.88630470380784 174.372,76.15190470380783 173.734,76.15190470380783 L113.481,76.09880470380783 z" fill="#990000" id="svg_1" class="" fill-opacity="1"/><path d="M113.481,76.09880470380783 C112.153,76.09880470380783 111.09,75.03610470380784 111.09,73.70780470380782 C111.09,72.37950470380783 112.153,71.31680470380783 113.481,71.31680470380783 H168.155 L157.05,60.31820470380783 C156.2,59.41490470380783 156.2,57.92720470380783 157.05,57.02390470380783 C157.475,56.54570470380783 158.113,56.33320470380783 158.75,56.33320470380783 C159.388,56.33320470380783 159.919,56.54570470380783 160.344,56.97080470380783 L175.434,72.06070470380783 C175.859,72.48570470380783 176.125,73.12330470380783 176.125,73.76090470380782 C176.125,74.39850470380783 175.859,75.03610470380784 175.434,75.46120470380784 C175.009,75.88630470380784 174.372,76.15190470380783 173.734,76.15190470380783 L113.481,76.09880470380783 z" fill="#004f99" class="" fill-opacity="1" id="svg_12" stroke="#004f99" stroke-opacity="1"/><path d="M114.332 102.401C113.695 102.401 113.164 102.188 112.632 101.763L97.5423 86.6733C97.1172 86.2482 96.8516 85.6106 96.8516 84.973C96.8516 84.3354 97.1172 83.6978 97.5423 83.2728C97.9674 82.8477 98.605 82.582 99.2426 82.582H159.602C160.93 82.582 161.993 83.6447 161.993 84.973C161.993 86.3014 160.93 87.364 159.602 87.364H104.928L116.033 98.4689C116.883 99.3722 116.883 100.86 116.033 101.763C115.608 102.135 115.023 102.401 114.332 102.401Z" fill="#990000" id="svg_2" class="" fill-opacity="1"/><path d="M114.332,102.401 C113.695,102.401 113.164,102.188 112.632,101.763 L97.5423,86.6733 C97.1172,86.2482 96.8516,85.6106 96.8516,84.973 C96.8516,84.3354 97.1172,83.6978 97.5423,83.2728 C97.9674,82.8477 98.605,82.582 99.2426,82.582 H159.602 C160.93,82.582 161.993,83.6447 161.993,84.973 C161.993,86.3014 160.93,87.364 159.602,87.364 H104.928 L116.033,98.4689 C116.883,99.3722 116.883,100.86 116.033,101.763 C115.608,102.135 115.023,102.401 114.332,102.401 z" fill="#004f99" class="" fill-opacity="1" id="svg_11" stroke="#004f99" stroke-opacity="1" stroke-width="1"/><path d="M177.294 183.27C175.966 183.27 174.903 182.207 174.903 180.879C174.903 179.55 175.966 178.488 177.294 178.488H231.969L220.864 167.489C220.014 166.586 220.014 165.098 220.864 164.195C221.289 163.716 221.926 163.504 222.564 163.504C223.202 163.504 223.733 163.716 224.264 164.195L239.354 179.285C239.779 179.71 240.045 180.347 240.045 180.985C240.045 181.622 239.779 182.26 239.354 182.685C238.929 183.11 238.291 183.376 237.654 183.376L177.294 183.27Z" fill="#851414" id="svg_3" class=""/><path d="M177.294,183.27 C175.966,183.27 174.903,182.207 174.903,180.879 C174.903,179.55 175.966,178.488 177.294,178.488 H231.969 L220.864,167.489 C220.014,166.586 220.014,165.098 220.864,164.195 C221.289,163.716 221.926,163.504 222.564,163.504 C223.202,163.504 223.733,163.716 224.264,164.195 L239.354,179.285 C239.779,179.71 240.045,180.347 240.045,180.985 C240.045,181.622 239.779,182.26 239.354,182.685 C238.929,183.11 238.291,183.376 237.654,183.376 L177.294,183.27 z" fill="#004f99" class="" id="svg_10" fill-opacity="1" stroke="#004f99" stroke-opacity="1"/><path d="M178.145 208.986C177.508 208.986 176.976 208.774 176.551 208.295L161.461 193.206C161.036 192.78 160.771 192.143 160.771 191.505C160.771 190.868 161.036 190.23 161.461 189.805C161.886 189.38 162.524 189.114 163.162 189.114H223.521C224.849 189.114 225.912 190.177 225.912 191.505C225.912 192.834 224.849 193.896 223.521 193.896H168.847L179.952 205.001C180.802 205.904 180.802 207.392 179.952 208.295C179.42 208.72 178.836 208.986 178.145 208.986Z" fill="#004f99" id="svg_4" class="" fill-opacity="1" stroke="#004f99" stroke-opacity="1"/><path d="M48.2875 183.96C46.9592 183.96 45.8965 182.897 45.8965 181.569C45.8965 180.241 46.9592 179.178 48.2875 179.178H102.962L91.91 168.179C91.0599 167.276 91.0599 165.788 91.91 164.885C92.3351 164.407 92.9727 164.194 93.6103 164.194C94.2479 164.194 94.7792 164.407 95.3105 164.885L110.4 179.975C110.826 180.4 111.091 181.038 111.091 181.675C111.091 183.004 110.028 184.066 108.7 184.066L48.2875 183.96Z" fill="#004f99" id="svg_5" class="" fill-opacity="1" stroke="#4141e8" stroke-opacity="1"/><path d="M49.1371 209.677C48.4995 209.677 47.9682 209.464 47.4369 208.986L32.347 193.896C31.9219 193.471 31.6562 192.833 31.6562 192.196C31.6562 190.867 32.7189 189.805 34.0473 189.805H94.4068C95.7351 189.805 96.7978 190.867 96.7978 192.196C96.7978 193.524 95.7351 194.587 94.4068 194.587H39.7325L50.8374 205.692C51.6875 206.595 51.6875 208.083 50.8374 208.986C50.3592 209.411 49.8279 209.677 49.1371 209.677Z" fill="#004f99" id="svg_6" class="" fill-opacity="1" stroke="#4141e8" stroke-opacity="1"/></g></svg>